<svg xmlns="http://www.w3.org/2000/svg" viewBox="0 0 26 26">
  <path d="M18 0L18 2L22.5625 2L19.34375 5.25C18.265625 4.457031 16.945313 4 15.5 4C11.898438 4 9 6.898438 9 10.5C9 13.300781 10.8125 15.695313 13.3125 16.59375C13.414063 16.292969 13.5 15.898438 13.5 15.5C13.5 15.101563 13.414063 14.707031 13.3125 14.40625C11.914063 13.605469 11 12.199219 11 10.5C11 8 13 6 15.5 6C18 6 20 8 20 10.5C20 11.898438 19.414063 13.101563 18.3125 14C18.414063 14.5 18.5 15 18.5 15.5L18.5 16.3125C20.601563 15.210938 22 13.101563 22 10.5C22 9.054688 21.542969 7.734375 20.75 6.65625L24 3.4375L24 8L26 8L26 0 Z M 12.6875 9.40625C12.585938 9.707031 12.5 10.101563 12.5 10.5C12.5 10.898438 12.585938 11.292969 12.6875 11.59375C14.085938 12.394531 15 13.800781 15 15.5C15 18 13 20 10.5 20C8 20 6 18 6 15.5C6 14.101563 6.585938 12.898438 7.6875 12C7.585938 11.5 7.5 11 7.5 10.5L7.5 9.6875C5.398438 10.789063 4 13 4 15.5C4 16.9375 4.464844 18.238281 5.25 19.3125L3.5 21.09375L1.5 19.09375L0.09375 20.5L2.09375 22.5L0.09375 24.5L1.5 25.90625L3.5 23.90625L5.5 25.90625L6.90625 24.5L4.90625 22.5L6.6875 20.75C7.761719 21.535156 9.0625 22 10.5 22C14.101563 22 17 19.101563 17 15.5C17 12.699219 15.1875 10.304688 12.6875 9.40625Z" fill="#9D9D9D" />
</svg>