<svg xmlns="http://www.w3.org/2000/svg" viewBox="0 0 48 48"><path fill="#ede7f6" d="M24 4A20 20 0 1 0 24 44A20 20 0 1 0 24 4Z"/><path fill="#ff9800" d="M28,31c0,0,0,4-4,4s-4-4-4-4"/><path fill="#673ab7" d="M24,44c4.482,0,8.605-1.492,11.939-3.982C35.32,32.452,27.75,31,27.75,31L24,31.77L20.25,31c0,0-7.572,1.424-8.19,9.018C15.395,42.508,19.518,44,24,44z"/><path fill="#311b92" d="M24,37c3.059,0,5.578-2.292,5.948-5.25c-0.884-0.398-1.603-0.607-1.954-0.693C27.963,33.238,26.189,35,24,35c-2.19,0-3.964-1.762-3.994-3.945c-0.353,0.086-1.071,0.293-1.955,0.688C18.417,34.705,20.938,37,24,37z"/><path fill="#a0530e" d="M32,22.5c0,0.828-0.672,1.5-1.5,1.5c-0.829,0-1.5-0.672-1.5-1.5s0.671-1.5,1.5-1.5C31.328,21,32,21.672,32,22.5 M19,22.5c0-0.828-0.672-1.5-1.5-1.5S16,21.672,16,22.5s0.672,1.5,1.5,1.5S19,23.328,19,22.5 M28,31v-4h-8v4c0,0,0,4,4,4S28,31,28,31z"/><path fill="#c16e14" d="M31,18.68c0-5.879-14-3.827-14,0v4.391c0,3.824,3.133,6.93,7,6.93c3.866,0,7-3.105,7-6.93V18.68z"/><path fill="#4e342e" d="M24,11c-4.86,0-8,4.313-8,8.172V21l2,2v-4l9.2-3l2.8,3v4l2-2v-0.809c0-3.218-0.831-6.803-4.8-7.592L26.399,11H24z"/><path fill="#212121" d="M26,22c0-0.551,0.448-1,1-1s1,0.449,1,1s-0.448,1-1,1S26,22.551,26,22 M20,22c0,0.551,0.448,1,1,1s1-0.449,1-1s-0.448-1-1-1S20,21.449,20,22"/></svg>