<svg xmlns="http://www.w3.org/2000/svg" viewBox="0 0 50 50">
  <path d="M1 6L1 16L3 16L3 44L5 44L5 16L45 16L45 44L47 44L47 16L49 16L49 6 Z M 3 8L47 8L47 14L3 14 Z M 8 10L8 12L10 12L10 10 Z M 14 10L14 12L16 12L16 10 Z M 20 10L20 12L30 12L30 10 Z M 34 10L34 12L36 12L36 10 Z M 40 10L40 12L42 12L42 10 Z M 19.488281 21C17.453125 21 15.613281 22.242188 14.851563 24.128906L13.203125 28.21875L12.480469 28.9375C11.53125 29.875 11 31.15625 11 32.488281L11 42C11 43.09375 11.90625 44 13 44L14 44C15.09375 44 16 43.09375 16 42L16 41.40625C18.105469 41.699219 20.753906 42 25 42C29.246094 42 31.894531 41.699219 34 41.40625L34 42C34 43.09375 34.90625 44 36 44L37 44C38.09375 44 39 43.09375 39 42L39 32.488281C39 31.15625 38.46875 29.875 37.519531 28.9375L36.796875 28.21875L35.148438 24.128906C34.386719 22.242188 32.546875 21 30.511719 21 Z M 19.488281 23L30.511719 23C31.738281 23 32.832031 23.742188 33.292969 24.878906L35.019531 29.160156C35.070313 29.285156 35.148438 29.398438 35.246094 29.496094L36.113281 30.359375C36.679688 30.921875 37 31.6875 37 32.488281L37 42L36 42L36 40.34375C36 40.046875 35.871094 39.769531 35.648438 39.582031C35.425781 39.390625 35.128906 39.308594 34.839844 39.355469C32.855469 39.675781 29.703125 40 25 40C20.296875 40 17.144531 39.675781 15.160156 39.355469C14.871094 39.308594 14.574219 39.390625 14.351563 39.582031C14.128906 39.769531 14 40.046875 14 40.34375L14 42L13 42L13 32.488281C13 31.6875 13.320313 30.921875 13.886719 30.359375L14.753906 29.496094C14.851563 29.398438 14.929688 29.285156 14.980469 29.160156L16.707031 24.878906C17.167969 23.742188 18.261719 23 19.488281 23 Z M 16.5 33C15.671875 33 15 33.671875 15 34.5C15 35.328125 15.671875 36 16.5 36C17.328125 36 18 35.328125 18 34.5C18 33.671875 17.328125 33 16.5 33 Z M 33.5 33C32.671875 33 32 33.671875 32 34.5C32 35.328125 32.671875 36 33.5 36C34.328125 36 35 35.328125 35 34.5C35 33.671875 34.328125 33 33.5 33 Z M 21 34L21 36L29 36L29 34Z" fill="#6D6D6D" />
</svg>