<svg xmlns="http://www.w3.org/2000/svg" viewBox="0 0 50 50">
  <path d="M24.962891 1.0546875 A 1.0001 1.0001 0 0 0 24.384766 1.2636719L1.3847656 19.210938 A 1.0005659 1.0005659 0 0 0 2.6152344 20.789062L4 19.708984L4 46 A 1.0001 1.0001 0 0 0 5 47L18.832031 47 A 1.0001 1.0001 0 0 0 19.158203 47L30.832031 47 A 1.0001 1.0001 0 0 0 31.158203 47L45 47 A 1.0001 1.0001 0 0 0 46 46L46 19.708984L47.384766 20.789062 A 1.0005657 1.0005657 0 1 0 48.615234 19.210938L41 13.269531C40.999922 13.061489 41.00006 12.820623 41 12.507812C40.999859 11.776319 41.000062 10.809744 41 9.8457031C40.999875 7.9176211 41 6 41 6 A 1.0001 1.0001 0 0 0 40 5L36 5 A 1.0001 1.0001 0 0 0 35 6C35 6 35.000625 7.1570629 35 8.3144531C34.999946 8.4138611 35.000063 8.4892153 35 8.5878906L25.615234 1.2636719 A 1.0001 1.0001 0 0 0 24.962891 1.0546875 z M 25 3.3222656L35.378906 11.419922 A 1.0001 1.0001 0 0 0 36.367188 11.560547C36.367188 11.560547 36.986309 10.761867 36.986328 10.761719C36.986348 10.76157 36.991388 10.708386 36.992188 10.697266C36.993688 10.675006 36.993841 10.668839 36.994141 10.662109C36.994592 10.648659 36.995894 10.642016 36.996094 10.634766C36.996335 10.620266 36.995945 10.606331 36.996094 10.587891C36.996392 10.551011 36.995852 10.499661 36.996094 10.435547C36.996578 10.307318 36.997647 10.125735 36.998047 9.9082031C36.99857 9.4731324 36.999687 8.8954613 37 8.3164062C37.000355 7.6582563 36.999934 7.4454733 37 7L39 7C39.000006 7.6422969 38.999908 8.4189176 39 9.8457031C39.000063 10.809787 38.999859 11.77615 39 12.507812C39.00007 12.873644 38.999904 13.179924 39 13.398438C39.000096 13.61695 39.000933 13.681016 39.001953 13.769531 A 1.0001 1.0001 0 0 0 39.386719 14.546875L44 18.146484L44 45L32 45L32 26L18 26L18 45L6 45L6 18.148438L25 3.3222656 z M 20 28L30 28L30 45L20 45L20 28 z M 27 35 A 1 1 0 0 0 26 36 A 1 1 0 0 0 27 37 A 1 1 0 0 0 28 36 A 1 1 0 0 0 27 35 z" fill="#6D6D6D" />
</svg>