<svg xmlns="http://www.w3.org/2000/svg" viewBox="0 0 50 50">
  <path d="M24.982422 2 A 1.0001 1.0001 0 0 0 24.535156 2.1132812L3.5351562 13.113281 A 1.0001 1.0001 0 0 0 3 14L3 45 A 1.0001 1.0001 0 0 0 4 46L11 46 A 1.0001 1.0001 0 0 0 12 45L12 28L38 28L38 45 A 1.0001 1.0001 0 0 0 39 46L46 46 A 1.0001 1.0001 0 0 0 47 45L47 14 A 1.0001 1.0001 0 0 0 46.464844 13.113281L25.464844 2.1132812 A 1.0001 1.0001 0 0 0 24.982422 2 z M 25 4.1289062L45 14.605469L45 44L40 44L40 27.167969 A 1.0001 1.0001 0 0 0 40 26.841797L40 19 A 1.0001 1.0001 0 0 0 39 18L11 18 A 1.0001 1.0001 0 0 0 10 19L10 26.832031 A 1.0001 1.0001 0 0 0 10 27.158203L10 44L5 44L5 14.605469L25 4.1289062 z M 12 20L38 20L38 26L12 26L12 20 z M 22 22 A 1.0001 1.0001 0 1 0 22 24L28 24 A 1.0001 1.0001 0 1 0 28 22L22 22 z" fill="#6D6D6D" />
</svg>