<svg xmlns="http://www.w3.org/2000/svg" viewBox="0 0 50 50">
  <path d="M4.4003906 6C3.0003906 6 2 7 2 8.5L2 33.599609C2 34.999609 3.0003906 36 4.4003906 36L30.800781 36L30.400391 34L4.4003906 34C4.3003906 34 4 34 4 33.5L4 8.5C4 8 4.3003906 8 4.4003906 8L41.599609 8C41.699609 8 42 8 42 8.5L42 10.800781C42.2 11.000781 43.1 11.800781 44 13.300781L44 8.5C44 7 42.999609 6 41.599609 6L4.4003906 6 z M 40.013672 12 A 1.0001 1.0001 0 0 0 39.359375 12.232422C39.359375 12.232422 36.413536 14.747887 36.039062 19.501953C35.210613 18.662188 34.595703 18.197266 34.595703 18.197266 A 1.0001 1.0001 0 0 0 34.039062 18 A 1.0001 1.0001 0 0 0 33.041016 18.71875C33.041016 18.71875 32 22.14359 32 25C32 26.426833 32.266639 28.806026 33.552734 31L33 31 A 1.0001 1.0001 0 0 0 32.023438 32.212891L34.158203 42L2 42L2 44L35.400391 44L44.599609 44L48 44L48 42L45.841797 42L47.976562 32.212891 A 1.0001 1.0001 0 0 0 47 31L46.658203 31C47.413004 29.444688 48 27.6248 48 24.5C48 20.809524 46.949219 17.683594 46.949219 17.683594 A 1.0001 1.0001 0 0 0 45.949219 17.001953 A 1.0001 1.0001 0 0 0 45.425781 17.181641C45.425781 17.181641 44.758562 17.643021 43.820312 18.435547C43.132218 14.436268 40.654297 12.244141 40.654297 12.244141 A 1.0001 1.0001 0 0 0 40.013672 12 z M 39.990234 14.576172C40.702841 15.374302 41.897801 16.993768 41.984375 20.152344C40.997446 21.152881 39.963789 22.345458 39.099609 23.716797C38.756307 23.046979 38.384225 22.444521 38 21.888672L38 20.5C38 17.033342 39.251355 15.383204 39.990234 14.576172 z M 21 16L21 24.900391L23.099609 22.800781L24.400391 26L25.599609 25.5L24.199219 22.300781L27 22L21 16 z M 45.429688 19.792969C45.703189 20.937901 46 22.510187 46 24.5C46 27.99549 45.351018 29.286254 44.404297 31L38.955078 31C38.964741 30.581924 38.999673 30.060701 39.078125 29.517578C39.230713 28.461201 39.52183 27.277444 39.912109 26.410156 A 1.0001 1.0001 0 0 0 39.914062 26.40625C41.345661 23.185153 44.078363 20.867622 45.429688 19.792969 z M 34.564453 20.917969C35.022468 21.35373 35.560474 21.9357 36.097656 22.642578 A 1.0001 1.0001 0 0 0 36.375 22.994141C36.938199 23.795873 37.481786 24.787714 37.927734 25.996094C37.517297 27.031906 37.250165 28.176595 37.097656 29.232422C37.003308 29.885602 36.948075 30.470322 36.9375 31L35.933594 31C34.315362 29.092786 34 26.46416 34 25C34 23.624691 34.291448 22.112941 34.564453 20.917969 z M 34.242188 33L37.78125 33 A 1.0001 1.0001 0 0 0 38.232422 33L45.757812 33L43.794922 42L36.205078 42L34.242188 33 z M 14 38L14 40L31.699219 40L31.199219 38L14 38 z" fill="#6D6D6D" />
</svg>