<svg id="Agrupar_3" data-name="Agrupar 3" xmlns="http://www.w3.org/2000/svg" width="2711.9" height="569.6" viewBox="0 0 27119 5696">
  <defs>
    <style>
      .cls-1, .cls-2, .cls-3 {
        fill: #040404;
        stroke-width: 1px;
      }

      .cls-1 {
        stroke: #ffa7c6;
      }

      .cls-1, .cls-2, .cls-3, .cls-4 {
        fill-rule: evenodd;
      }

      .cls-2 {
        stroke: #101098;
      }

      .cls-3 {
        stroke: #f9bf15;
      }

      .cls-4 {
        fill: none;
        stroke: #040404;
        stroke-width: 5px;
        stroke-dasharray: 20 10;
      }

      .cls-5 {
        font-size: 3416.667px;
        font-family: Ubuntu;
        font-weight: 700;
        font-style: italic;
      }
    </style>
  </defs>
  <g id="Agrupar_1" data-name="Agrupar 1">
    <path id="Forma_6" data-name="Forma 6" class="cls-1" d="M2103.74,3868.56l-131.23-149.32,221.38-591.75-169.62-314.82,28.12-607.52,183.74,341.05-134.75-501.43,185.14,186.57-148.84-307.68C1936.49,1683.46,3823.36-.009,3823.36-0.009L3524.94,888.536l-191.72,52.521,187.71,34.268L3305,1108.58l186.69,0.97L3324.8,1993.52l-498.46,268.55,436.94-100L2833.53,2461.3l343.01-83.25-316.67,509.1-518.64,262.5Z"/>
    <path id="Forma_2" data-name="Forma 2" class="cls-2" d="M923.688,1646.85l460.682,2897,1832,230.17,2099.75-589.67S3945.79,1794.17,3917.11,1742.11s1062,2285.31,1062,2285.31L3193.14,4668.06,1683.02,4281.4Z"/>
    <path id="Forma_3" data-name="Forma 3" class="cls-3" d="M1106.29,1768.49l776.11,309.63-638.78,39.51Z"/>
    <path id="Forma_4" data-name="Forma 4" class="cls-3" d="M3833.43,2057.99L3340,2273.05l163.41-324.98Z"/>
    <path id="Forma_5" data-name="Forma 5" class="cls-3" d="M600.891,2210.03L1040.44,5033.79,3341.6,5163.52l1925.17-884.88L3276.98,5012.17,1338,4771.93Z"/>
    <path id="Forma_7" data-name="Forma 7" class="cls-3" d="M2156.13,3874.18l-163.38,71.1"/>
  </g>
  <g id="Agrupar_2" data-name="Agrupar 2">
    <path id="Forma_8" data-name="Forma 8" class="cls-4" d="M1727.93,4008.49l1230.49,238.4,1468.89-555.03"/>
    <path id="Forma_8_copiar" data-name="Forma 8 copiar" class="cls-4" d="M1727.93,3799.89l1230.49,238.4,1468.89-555.03"/>
    <path id="Forma_8_copiar_2" data-name="Forma 8 copiar 2" class="cls-4" d="M1715.52,3675.72l1230.49,238.4L4414.9,3359.1"/>
    <path id="Forma_8_copiar_3" data-name="Forma 8 copiar 3" class="cls-4" d="M1727.93,3526.72l1230.49,238.4L4427.31,3210.1"/>
  </g>
  <g id="Agrupar_2_copiar" data-name="Agrupar 2 copiar">
    <path id="Forma_8-2" data-name="Forma 8" class="cls-4" d="M1481.27,3211.32l1230.49,238.4L4180.65,2894.7"/>
    <path id="Forma_8_copiar-2" data-name="Forma 8 copiar" class="cls-4" d="M1481.27,3002.72l1230.49,238.4L4180.65,2686.1"/>
    <path id="Forma_8_copiar_2-2" data-name="Forma 8 copiar 2" class="cls-4" d="M1468.85,2878.56l1230.49,238.39,1468.89-555.02"/>
    <path id="Forma_8_copiar_3-2" data-name="Forma 8 copiar 3" class="cls-4" d="M1481.27,2729.56l1230.49,238.39,1468.89-555.02"/>
  </g>
  <text id="Inkdez_sibcdc" data-name="Inkdez sibcdc" class="cls-5" x="5354.24" y="4006.088">Inkdez sibcdc</text>
</svg>
