<svg xmlns="http://www.w3.org/2000/svg" viewBox="0 0 24 24">
  <path d="M9 5C5.132813 5 2 8.132813 2 12C2 15.867188 5.132813 19 9 19C9.597656 19 10.164063 18.921875 10.71875 18.78125C9.933594 18.296875 9.234375 17.683594 8.65625 16.96875C6.054688 16.792969 4 14.644531 4 12C4 9.238281 6.238281 7 9 7C11.761719 7 14 9.238281 14 12C14 13.253906 13.511719 14.371094 12.75 15.25C13.324219 15.664063 14.015625 15.917969 14.75 15.96875C15.53125 14.839844 16 13.476563 16 12C16 8.132813 12.867188 5 9 5 Z M 15 5C14.332031 5 13.675781 5.105469 13.0625 5.28125C13.808594 5.753906 14.5 6.328125 15.0625 7C17.800781 7.027344 20 9.257813 20 12C20 14.761719 17.761719 17 15 17C12.238281 17 10 14.761719 10 12C10 10.761719 10.441406 9.621094 11.1875 8.75C10.617188 8.351563 9.945313 8.109375 9.21875 8.0625C8.449219 9.183594 8 10.535156 8 12C8 15.867188 11.132813 19 15 19C18.867188 19 22 15.867188 22 12C22 8.132813 18.867188 5 15 5Z" fill="#BDBDBD" />
</svg>