<svg xmlns="http://www.w3.org/2000/svg" viewBox="0 0 24 24">
  <path d="M19.87,6.13C19.6,6.05,19.3,6,19,6H7C5.34,6,4,7.34,4,9v9c0,0.3,0.05,0.6,0.13,0.87C2.89,18.5,2,17.36,2,16V7 c0-1.66,1.34-3,3-3h12C18.36,4,19.5,4.89,19.87,6.13z" fill="#CCCED9" />
  <path d="M4,18V9c0-1.657,1.343-3,3-3h12c1.657,0,3,1.343,3,3v9c0,1.657-1.343,3-3,3H7 C5.343,21,4,19.657,4,18z" opacity=".35" fill="#CCCED9" />
  <path d="M22,9v1.31l-5.74,3.72C15.27,14.67,14.14,15,13,15s-2.27-0.33-3.26-0.97L4,10.31V9c0-0.7,0.24-1.34,0.64-1.85l6.73,4.36 c0.99,0.65,2.27,0.65,3.26,0l6.73-4.36C21.76,7.66,22,8.3,22,9z" fill="#CCCED9" />
  <path d="M23.674,18.866l-3.387-2.603C19.761,15.858,19,16.234,19,16.897V18h-3.5c-0.828,0-1.5,0.672-1.5,1.5s0.672,1.5,1.5,1.5H19 v1.103c0,0.664,0.761,1.039,1.287,0.634l3.387-2.603C24.091,19.814,24.091,19.186,23.674,18.866z" fill="#CCCED9" />
</svg>