<svg xmlns="http://www.w3.org/2000/svg" data-name="Слой 1" viewBox="0 0 24 24">
  <path d="M18,21H6a3,3,0,0,1-3-3V8.765A3,3,0,0,1,4.542,6.143l6-3.333a3,3,0,0,1,2.914,0l6,3.333A3,3,0,0,1,21,8.765V18A3,3,0,0,1,18,21Z" opacity=".35" fill="#CCCED9" />
  <path d="M20.5,9.23a1.494,1.494,0,0,1-.727-.189l-6.839-3.8a1.909,1.909,0,0,0-1.864,0l-6.839,3.8A1.5,1.5,0,1,1,2.772,6.418l6.839-3.8a4.888,4.888,0,0,1,4.778,0l6.839,3.8A1.5,1.5,0,0,1,20.5,9.23Z" fill="#CCCED9" />
  <polygon points="16 21 8 21 8 15 12 13 16 15 16 21" fill="#CCCED9" />
  <path d="M16,16a1,1,0,0,1-.6-.2L12,13.25,8.6,15.8a1,1,0,0,1-1.2-1.6l4-3a1,1,0,0,1,1.2,0l4,3A1,1,0,0,1,16,16Z" fill="#CCCED9" />
</svg>